<svg xmlns="http://www.w3.org/2000/svg" viewBox="0 0 512 512" fill="none">
  <g stroke="#fff" stroke-linecap="round" stroke-linejoin="round">
    <!-- One continuous pencil gesture with three clearly readable wandering loops. -->
    <path
      d="M151 44
         C121 62 95 91 76 128
         C39 198 32 291 70 363
         C120 458 232 496 333 460
         C435 424 493 320 477 214
         C461 108 366 29 259 31
         C151 33 59 116 45 224
         C31 332 105 430 209 459
         C314 488 421 431 459 329
         C497 227 456 114 363 61
         C269 8 148 36 77 122
         C6 208 28 337 119 410
         C210 483 342 470 420 384
         C498 298 488 166 403 89
         C318 12 184 19 96 99
         C38 152 24 236 54 309"
      stroke-width="5"
    />

    <!-- Inner counter repeats the same spaced, uninterrupted signature motion. -->
    <path
      d="M217 178
         C174 198 156 248 173 292
         C193 344 254 365 304 337
         C354 309 370 244 336 198
         C302 152 235 149 194 190
         C153 231 163 298 211 330
         C259 362 323 337 343 283
         C363 229 326 173 270 167
         C214 161 169 207 174 263
         C179 319 230 354 283 335"
      stroke-width="4.8"
    />
  </g>
</svg>
