<svg xmlns="http://www.w3.org/2000/svg" viewBox="0 0 512 512" fill="none">
  <g stroke="#fff" stroke-linecap="round" stroke-linejoin="round">
    <!-- One continuous pencil stroke: upper-left lead-in, three calm loops, no exit tail. -->
    <path
      d="M116 54
         C88 82 69 117 57 153
         C47 181 41 202 38 220

         C20 340 113 463 240 480
         C370 498 483 401 486 272
         C489 142 386 34 258 29
         C145 25 60 102 38 220

         C34 337 125 449 245 463
         C365 477 458 382 460 263
         C462 146 370 48 252 43
         C143 39 60 119 42 226

         C39 333 129 431 239 446
         C350 461 428 370 430 259
         C432 154 349 65 245 58
         C144 51 71 128 58 229"
      stroke-width="6.5"
    />

    <!-- Inner counter repeats the same uninterrupted, spaced loop gesture. -->
    <path
      d="M185 252
         C181 207 214 171 258 169
         C304 167 344 203 347 249
         C350 296 314 337 267 342
         C220 347 181 311 185 252

         C188 214 218 183 258 182
         C298 181 332 212 334 252
         C336 292 305 326 265 329
         C225 332 191 301 188 261

         C191 225 219 196 256 195
         C293 194 321 223 322 259
         C323 295 295 316 260 317
         C224 318 196 290 191 254"
      stroke-width="6"
    />
  </g>
</svg>
