<svg xmlns="http://www.w3.org/2000/svg" viewBox="0 0 512 512" fill="none">
  <g stroke="#fff" stroke-linecap="round" stroke-linejoin="round">
    <!-- One continuous signature: expressive crossing on the left, clean sweeps elsewhere. -->
    <path
      d="M157 45
         C123 58 96 87 81 125

         C39 191 35 292 82 374
         C139 474 267 501 369 445
         C471 389 505 260 455 158
         C405 56 284 16 181 55
         C137 72 103 97 81 125

         C47 194 52 292 99 365
         C158 456 276 478 369 420
         C462 362 484 243 430 151
         C376 59 266 30 174 71
         C132 90 101 116 86 151

         C56 211 64 296 108 357
         C165 436 271 454 353 400
         C435 346 453 242 404 161
         C355 80 257 53 177 90
         C139 108 112 132 98 164"
      stroke-width="5.5"
    />

    <!-- Inner counter uses the same left crossing and smooth right-hand sweep. -->
    <path
      d="M222 178
         C190 190 171 218 169 252

         C167 299 203 340 250 345
         C298 350 340 315 347 268
         C354 221 319 178 272 170
         C251 167 234 170 222 178

         C192 195 180 229 188 261
         C199 304 241 330 283 319
         C325 308 349 264 336 223
         C323 182 278 161 239 179

         C207 194 192 229 201 261
         C212 298 250 318 286 306
         C322 294 339 254 325 219
         C311 184 271 170 238 187"
      stroke-width="5"
    />
  </g>
</svg>
