<svg xmlns="http://www.w3.org/2000/svg" viewBox="0 0 512 512" fill="none">
  <g stroke="#fff" stroke-linecap="round" stroke-linejoin="round">
    <!-- Same-scale loops alternate inside and outside one another instead of spiraling inward. -->
    <path
      d="M112 42
         C130 37 148 39 168 45

         C260 2 392 40 456 128
         C497 185 490 300 445 371
         C380 472 244 494 140 435
         C52 385 18 279 48 184
         C68 121 112 72 168 45

         C275 15 403 57 466 146
         C512 210 481 331 419 401
         C344 486 208 478 112 411
         C28 350 20 238 64 152
         C91 98 126 61 168 45

         C250 -5 380 26 441 111
         C490 167 500 275 458 351
         C400 459 274 512 160 459
         C63 412 31 314 55 199
         C67 130 107 79 168 45"
      stroke-width="5.5"
    />

    <!-- Inner counter repeats the intertwined in/out crossings at one consistent scale. -->
    <path
      d="M218 181
         C239 168 263 165 284 173

         C330 190 354 235 345 281
         C336 328 291 354 246 343
         C201 332 169 292 177 247
         C184 209 197 194 218 181

         C252 157 307 171 334 207
         C366 249 348 308 307 335
         C266 362 207 339 182 297
         C157 255 179 203 218 181

         C257 166 309 184 331 223
         C354 264 330 319 286 338
         C242 357 187 327 172 282
         C157 237 181 198 218 181"
      stroke-width="5"
    />
  </g>
</svg>
