<svg xmlns="http://www.w3.org/2000/svg" viewBox="0 0 512 512" fill="none">
  <g stroke="#fff" stroke-linecap="round" stroke-linejoin="round">
    <!-- One continuous outer signature stroke: three wandering, crossing loops. -->
    <path
      d="M255 29
         C382 18 487 119 484 247
         C481 375 378 478 251 483
         C123 488 24 386 28 257
         C32 128 137 28 266 33
         C391 38 478 145 465 270
         C452 395 343 479 221 458
         C98 437 22 326 53 205
         C84 84 202 18 318 57
         C434 96 491 217 446 330
         C401 443 271 491 165 431
         C59 371 31 236 105 140
         C179 44 320 24 414 109
         C508 194 487 342 387 420
         C287 498 139 464 71 352
         C3 240 63 96 189 47
         C314 -2 447 68 478 196"
      stroke-width="7"
    />

    <!-- One smaller continuous signature stroke repeating the same gesture. -->
    <path
      d="M256 174
         C303 166 346 201 349 249
         C352 297 316 338 268 344
         C220 350 177 315 171 267
         C165 219 200 177 248 171
         C295 165 336 202 337 250
         C338 297 301 333 254 333
         C207 333 174 294 179 247
         C184 200 226 168 272 178
         C318 188 345 233 329 278
         C313 323 265 345 223 324
         C181 303 165 252 190 212
         C215 172 267 163 304 192
         C341 221 344 274 311 307"
      stroke-width="7"
    />
  </g>
</svg>
