<svg xmlns="http://www.w3.org/2000/svg" viewBox="0 0 512 512" fill="none">
  <g stroke="#fff" stroke-linecap="round" stroke-linejoin="round">
    <!-- A single, balanced signature stroke with four gently wandering passes. -->
    <path
      d="M154 43
         C128 56 105 79 88 108
         C49 174 35 263 62 339
         C99 445 211 493 319 469
         C429 445 493 340 479 228
         C465 116 369 32 257 31
         C144 30 51 115 39 227
         C27 340 108 439 218 463
         C329 487 435 421 466 313
         C497 204 444 94 344 51
         C243 8 127 50 69 145
         C11 240 46 363 143 426
         C240 489 367 461 431 365
         C495 269 464 141 372 75
         C280 9 150 30 79 119
         C8 208 31 338 124 409
         C217 480 349 463 420 374
         C491 285 474 155 386 83
         C298 11 166 24 88 108
         C33 167 24 252 55 324"
      stroke-width="6.5"
    />

    <!-- Inner counter: the same gesture in a calmer three-pass scale. -->
    <path
      d="M215 179
         C176 201 159 249 176 291
         C197 341 256 359 303 333
         C350 307 365 246 334 202
         C303 158 240 151 199 187
         C158 223 160 287 204 322
         C248 357 312 341 338 291
         C364 241 335 182 282 169
         C229 156 178 194 173 248
         C168 302 210 345 264 344
         C318 343 357 298 351 245
         C345 192 292 158 241 176
         C190 194 166 251 190 299"
      stroke-width="6"
    />
  </g>
</svg>
